{"title":"Thor.2011.iNTERNAL.BRRip.XviD-RLF","uid":6636576,"size":863124504,"categoryP":"video","categoryS":"movies","magnet":"?xt=urn:btih:8467993b4ca235621a5255bd52236bb6feed74e3&amp;dn=Thor.2011.iNTERNAL.BRRip.XviD-RLF&amp;tr=udp%3A%2F%2Ftracker.openbittorrent.com%3A80&amp;tr=udp%3A%2F%2Fopen.demonii.com%3A1337&amp;tr=udp%3A%2F%2Ftracker.coppersurfer.tk%3A6969&amp;tr=udp%3A%2F%2Fexodus.desync.com%3A6969","seeders":0,"leechers":1,"uploader":"rlf-rls","files":-1,"time":1314582736,"description":"           Thor.2011.BRRip.XviD-RLF\n           ~~~~~~~~~~~~~~~~~~~~~~~~\n\n               DO U THINK SO :)\n                                            \nGeneral:\n\n\nComplete name                    : rlf-thor.avi\nFormat                           : AVI\nFormat/Info                      : Audio Video Interleave\nFile size                        : 715 MiB\nDuration                         : 1h 54mn \nOverall bit rate                 : 871 Kbps\nLanguage                         : English\nSubs                             : Polish , English\nEncoder                          : Ralf\n\nVideo:\n\n                     \nFormat                           : MPEG-4 Visual\nFormat profile                   : Advanced Simple@L5\nFormat settings, BVOP            : 2\nFormat settings, QPel            : No\nFormat settings, GMC             : No warppoints\nFormat settings, Matrix          : H.263\nMuxing mode                      : Packed bitstream\nCodec ID                         : XVID\nDuration                         : 1h 54mn\nBit rate                         : 730 Kbps\nWidth                            : 688 pixels\nHeight                           : 288 pixels\nDisplay aspect ratio             : 2.35:1\nFrame rate                       : 23.976 fps\nColor space                      : YUV\nChroma subsampling               : 4:2:0\nBit depth                        : 8 bits\nScan type                        : Progressive\nBits/(Pixel*Frame)               : 0.154\nStream size                      : 600 MiB (84%)\n\nAudio:\n\n\nFormat                           : MPEG Audio\nFormat profile                   : Layer 3\nCodec ID/Hint                    : MP3\nDuration                         : 1h 54mn\nBit rate mode                    : Constant\nBit rate                         : 128 Kbps\nChannel(s)                       : 2 channels\nSampling rate                    : 48.0 KHz\nStream size                      : 105 MiB (15%)\nAlignment                        : Split accross interleaves\nInterleave, duration             : 24 ms (0.58 video frame)\n\n\n \n\n\nMOVIE INFO:\n\n           \nThe powerful but arrogant warrior Thor is cast out of the fantastic realm of \nAsgard and sent to live amongst  humans on Earth, where  he soon becomes one \n                       of their finest defenders.\n\n                                 &lt;a href=&quot;\nhttp://www.imdb.com/title/tt0800369/&quot; rel=&quot;nofollow&quot; target=&quot;_NEW&quot;&gt;\nhttp://www.imdb.com/title/tt0800369/&lt;/a&gt;  &lt;a href=&quot;\nhttp://www.filmweb.pl/film/Thor-2011-325418&quot; rel=&quot;nofollow&quot; target=&quot;_NEW&quot;&gt;\nhttp://www.filmweb.pl/film/Thor-2011-325418&lt;/a&gt;\n                                             \n\nSOURCE:\n\nFelony 720p.BluRay.x264 (THX)\n\n\niNTERNAL NOTES:\n\nPrevious release had crapy quality and pl subs was not 100% synh\nFirst i changed the resolution, add some colours and put some nice \nfilters size is bad (LOL 4 hours work) PL subs are from trusted \nsource nice synh but fanmade because there is no retail release in \nPoland right now.\n\nLOL !!!!\n\nand we all know why iNTERNAL\n\nstill do not know why I do it","torrent":{"xt":"urn:btih:8467993b4ca235621a5255bd52236bb6feed74e3","amp;dn":"Thor.2011.iNTERNAL.BRRip.XviD-RLF","amp;tr":["udp%3A%2F%2Ftracker.openbittorrent.com%3A80","udp%3A%2F%2Fopen.demonii.com%3A1337","udp%3A%2F%2Ftracker.coppersurfer.tk%3A6969","udp%3A%2F%2Fexodus.desync.com%3A6969"],"infoHash":"8467993b4ca235621a5255bd52236bb6feed74e3","infoHashBuffer":{"type":"Buffer","data":[132,103,153,59,76,162,53,98,26,82,85,189,82,35,107,182,254,237,116,227]},"announce":[],"urlList":[]}}